P2
# Tre
64 64
255
125
137
148
142
140
131
111
104
93
92
98
94
142
112
125
177
129
158
185
195
212
205
204
204
208
209
208
208
209
209
205
206
205
202
201
201
202
203
201
201
205
201
208
210
205
187
162
115
132
124
112
119
121
118
95
91
83
129
197
184
183
204
208
198
150
142
127
137
108
111
90
125
118
95
84
96
97
82
88
114
159
139
180
221
218
215
214
213
212
211
211
212
212
213
213
213
212
214
212
211
211
211
211
211
211
211
211
211
214
193
145
148
96
136
135
128
121
150
176
168
83
137
205
214
209
157
122
136
118
138
143
122
109
102
92
159
158
105
85
79
111
125
94
169
150
110
126
220
219
216
215
214
213
213
213
213
214
214
214
213
212
214
213
212
211
211
211
212
212
212
212
209
192
192
166
132
151
114
139
182
172
207
208
185
85
152
193
181
170
174
146
155
128
145
132
116
98
94
90
131
195
139
92
106
130
156
149
148
123
178
215
209
219
216
216
215
214
214
214
214
215
214
214
214
214
214
215
214
213
212
213
213
212
213
213
194
117
161
202
173
185
153
154
211
148
184
188
170
94
119
133
121
203
193
113
112
141
109
127
95
109
113
90
99
163
175
93
126
126
160
144
125
111
157
208
221
218
217
216
215
215
215
215
214
214
215
214
214
213
214
213
213
213
213
212
212
212
213
213
208
194
206
184
171
206
194
192
158
164
167
171
139
100
107
102
91
131
124
104
102
146
137
140
133
131
97
91
101
103
101
87
88
78
86
87
153
212
201
223
220
217
217
216
215
215
215
214
214
215
215
215
214
213
214
213
213
213
214
213
213
213
211
211
212
212
212
212
211
209
144
165
178
151
137
140
135
126
128
112
95
118
105
116
93
132
136
132
148
120
121
96
97
96
90
84
77
72
71
71
86
108
183
224
220
217
217
217
215
215
215
214
215
216
214
215
214
214
214
214
214
214
214
214
214
213
212
211
211
212
213
214
215
212
183
142
148
130
121
121
137
118
128
117
93
97
95
95
115
123
129
136
111
96
105
107
101
100
94
86
85
80
80
72
68
74
165
225
220
217
216
215
215
216
215
215
215
215
215
215
215
214
215
214
214
214
215
214
214
212
210
211
212
212
212
214
214
217
221
209
206
152
136
161
125
112
134
120
146
115
106
124
123
102
116
104
89
118
130
128
100
103
105
87
82
83
135
194
160
101
198
224
220
219
233
238
225
213
215
215
215
215
214
215
214
215
215
215
215
215
214
214
214
225
237
227
212
220
215
213
215
217
193
175
152
117
125
130
140
112
130
134
195
199
180
118
116
147
120
113
101
128
116
100
100
99
99
93
86
94
107
162
231
226
229
224
221
243
248
248
248
242
218
214
215
215
215
214
214
215
216
216
215
215
215
214
213
227
245
249
246
249
248
239
223
196
118
115
108
111
108
108
128
112
123
139
183
218
217
150
138
147
113
143
124
134
116
98
119
98
95
91
105
119
150
162
211
218
214
232
234
247
247
247
245
246
231
214
215
216
223
239
234
224
216
217
216
216
217
218
215
245
248
250
250
250
250
233
242
192
118
113
111
111
110
155
103
103
94
108
159
165
142
186
206
139
129
104
154
155
107
99
109
99
100
87
90
115
137
165
146
102
145
206
207
227
248
245
241
243
245
233
217
221
235
246
247
247
238
216
217
219
217
228
238
246
248
239
241
234
246
183
137
121
108
124
113
131
126
142
87
85
89
89
88
93
100
144
200
123
97
108
121
119
104
93
100
108
98
88
84
89
97
79
177
152
133
181
211
209
248
243
235
232
242
245
240
220
225
242
245
246
244
226
222
222
227
239
245
246
249
182
202
192
157
145
141
138
114
140
136
129
116
144
118
85
114
106
83
90
78
86
174
117
130
114
97
97
91
85
92
98
96
89
82
82
91
87
74
103
138
124
165
238
245
241
240
240
243
246
245
243
237
240
243
244
243
245
244
245
245
248
247
247
246
195
187
142
146
118
119
115
99
104
108
128
171
190
145
84
110
102
95
85
74
79
87
131
123
112
90
85
91
96
100
104
100
87
86
78
95
122
74
71
80
100
203
246
245
242
239
243
244
244
243
245
245
244
244
244
242
245
247
248
248
248
248
243
176
181
140
130
120
155
170
163
117
91
108
109
145
120
100
87
105
93
100
92
86
76
83
109
105
133
103
97
114
117
171
131
94
89
84
79
81
112
166
114
82
210
246
247
245
239
237
236
235
236
238
239
244
245
245
245
245
246
246
247
247
247
247
247
233
221
173
97
122
127
146
162
143
138
187
138
151
154
104
93
113
105
105
96
92
87
86
128
135
132
145
135
120
134
98
100
89
82
78
75
72
89
76
69
83
121
220
247
243
241
240
241
234
231
231
234
240
244
245
246
247
246
246
246
247
247
247
248
247
234
234
120
140
117
204
168
146
203
183
201
198
162
130
135
109
118
98
127
106
94
98
122
144
120
143
141
124
128
112
146
120
81
93
93
156
203
217
162
109
73
127
200
241
239
243
242
240
234
231
230
233
239
244
246
246
246
246
246
246
247
246
247
246
247
246
188
157
138
139
154
164
200
144
129
132
145
124
126
120
149
104
106
103
120
126
132
127
138
150
106
112
97
94
127
126
83
158
195
215
177
187
231
172
152
188
192
242
246
245
240
241
241
238
236
236
235
238
243
244
243
242
243
244
245
246
245
241
241
243
243
213
187
209
128
159
149
104
120
125
112
134
109
127
159
157
171
157
119
126
128
125
107
116
101
81
80
102
84
92
83
120
74
75
73
135
208
220
239
239
238
239
247
246
244
245
246
246
246
245
242
241
242
244
244
237
231
233
235
233
232
228
227
229
233
240
221
122
114
189
208
146
179
162
130
113
101
112
130
107
138
190
224
198
112
118
94
105
104
100
84
84
86
88
93
73
71
66
71
69
87
201
249
250
247
245
246
247
247
247
247
246
247
245
239
241
243
239
239
243
234
224
225
225
225
226
229
227
228
224
194
125
117
225
242
186
192
172
141
112
103
104
138
131
122
183
217
230
104
95
177
121
92
109
82
115
133
92
97
80
75
70
72
70
89
141
222
253
248
244
244
244
246
246
246
242
244
242
232
230
233
230
228
231
235
224
224
224
227
228
230
229
228
224
155
134
152
220
213
168
175
182
152
134
134
99
108
112
109
107
111
144
118
86
210
204
126
156
81
164
146
90
80
97
77
71
66
69
68
75
160
172
238
248
246
241
239
240
241
240
236
234
232
231
229
227
225
227
233
229
224
224
225
225
225
226
227
228
189
78
118
121
115
149
191
144
121
131
120
135
135
123
100
127
133
123
100
89
222
183
130
114
87
191
200
103
80
133
113
89
87
77
65
75
57
112
240
244
243
240
239
239
237
234
232
233
234
232
229
229
228
230
232
242
240
240
232
225
227
227
227
232
234
180
94
131
152
175
115
132
112
117
111
123
134
152
134
138
126
131
85
86
166
135
111
101
84
123
174
85
86
215
136
158
127
93
152
156
148
177
221
233
232
237
235
228
228
228
235
228
228
230
229
227
230
244
247
247
248
248
246
238
227
231
237
233
157
80
135
112
167
181
159
175
117
105
121
104
103
110
130
142
101
117
91
100
142
113
105
96
81
100
122
87
91
162
219
201
112
126
101
185
211
214
230
233
233
243
243
241
243
241
246
242
237
244
246
243
242
247
247
247
247
246
245
244
238
242
245
244
215
190
199
223
232
243
243
199
118
98
96
113
91
96
118
133
107
111
86
99
112
100
104
93
84
101
121
91
90
129
168
142
103
74
69
114
185
237
235
234
241
245
245
244
244
245
245
242
247
246
246
247
246
246
246
246
245
245
243
242
243
246
244
242
245
231
242
239
225
159
126
120
150
81
80
141
192
152
98
93
97
123
116
132
149
125
115
107
82
99
107
93
89
113
117
139
186
159
65
65
147
234
236
235
235
243
243
242
237
239
241
242
240
245
246
246
245
246
246
246
245
241
237
237
239
243
242
233
243
249
251
249
212
172
80
113
124
88
79
158
231
226
177
153
125
87
150
141
146
129
122
124
117
111
130
100
92
100
99
107
185
200
176
127
182
240
239
238
236
239
244
244
243
238
235
236
238
236
244
245
243
242
244
244
241
238
237
234
230
228
235
234
239
218
221
200
109
105
79
73
85
88
82
101
184
222
245
226
214
158
142
133
109
128
152
149
114
111
127
94
105
83
107
100
144
163
214
241
233
206
242
241
240
241
240
241
244
248
246
244
242
237
239
237
236
235
235
237
239
237
236
237
236
240
243
239
244
192
118
71
69
79
84
87
108
89
82
81
86
96
181
212
229
227
127
143
122
106
118
110
91
101
96
87
94
85
82
81
84
106
163
213
177
127
209
186
206
208
224
211
172
198
223
216
211
215
227
208
221
235
230
230
222
239
239
242
243
249
250
248
197
99
66
81
95
100
118
121
142
80
80
103
119
105
97
196
236
232
137
140
119
106
108
113
89
91
87
83
83
87
81
88
84
92
107
136
99
77
98
108
113
111
126
138
114
112
149
140
112
132
126
131
151
152
178
144
100
181
215
169
159
185
181
182
84
82
67
71
90
92
127
109
85
75
81
125
132
184
221
248
247
242
127
144
117
116
99
100
89
89
88
83
83
88
84
81
78
96
103
128
101
73
98
108
101
104
100
123
107
111
115
113
97
126
91
132
129
112
115
102
84
103
132
102
122
105
98
84
70
69
72
67
70
96
167
143
116
77
83
162
155
212
139
187
219
216
132
128
102
107
94
91
86
87
99
94
90
85
83
78
76
78
97
121
111
83
96
95
114
92
80
104
102
107
106
111
90
120
76
107
108
99
119
109
99
92
92
83
137
144
91
93
90
111
91
75
85
105
107
123
113
82
86
121
132
134
122
112
139
121
109
97
101
89
87
91
89
89
108
98
88
82
81
82
75
75
77
71
95
82
93
99
119
97
75
87
93
86
95
119
86
115
72
72
103
77
119
114
97
59
69
64
78
88
83
79
83
99
82
77
79
80
89
137
133
108
120
131
125
116
125
112
125
126
93
104
94
92
102
100
86
91
102
88
85
80
81
78
77
73
72
66
66
89
106
80
105
87
73
73
67
75
93
106
73
111
66
68
96
82
113
116
88
58
60
60
66
68
66
67
69
80
71
73
69
71
81
113
112
129
135
127
124
112
97
98
99
92
84
90
136
155
165
118
92
95
102
88
84
81
85
82
75
74
77
72
63
78
93
65
103
76
63
60
79
106
117
107
84
145
69
94
108
76
112
107
80
63
64
67
73
69
72
70
74
77
76
86
81
87
84
96
128
137
136
114
108
97
92
94
79
80
86
91
179
160
171
161
87
91
91
86
85
84
78
77
78
75
81
85
67
130
124
88
104
113
90
93
142
140
132
106
90
128
81
103
117
65
102
88
84
98
80
87
89
109
97
94
91
86
98
115
99
93
80
145
133
112
112
91
85
80
95
84
79
81
88
92
131
100
130
166
88
95
96
87
84
81
81
79
76
76
75
70
86
157
166
136
160
143
143
167
169
172
166
139
106
156
112
134
162
114
110
130
139
141
93
122
101
166
171
173
169
127
123
140
167
95
83
101
102
117
105
89
84
77
82
84
75
84
89
93
90
95
94
107
89
104
122
83
85
84
82
81
79
76
69
66
74
160
170
165
160
159
156
152
147
157
167
160
143
158
159
160
160
152
159
169
163
167
146
137
158
188
199
208
184
172
178
196
164
82
77
75
84
88
100
116
121
79
79
85
80
89
86
85
89
92
93
98
90
92
91
83
86
90
86
84
81
78
71
68
81
118
168
174
168
169
166
173
176
175
172
169
147
141
157
149
164
163
167
157
174
173
170
149
141
143
149
146
151
151
85
72
69
71
73
68
75
84
96
106
83
82
97
97
105
98
83
85
96
91
127
122
110
96
105
82
98
95
89
85
82
79
73
69
114
170
173
174
171
170
167
166
167
165
163
166
168
169
174
172
170
169
166
141
160
168
165
152
154
167
170
172
173
170
111
81
71
70
73
74
76
83
94
98
88
79
90
102
106
151
82
84
122
116
100
126
109
93
89
81
93
102
102
86
79
74
70
65
99
129
137
169
172
169
169
165
164
165
167
168
168
164
167
166
165
164
166
166
168
168
167
166
169
165
161
160
162
127
99
76
70
78
81
85
76
81
87
79
81
106
93
87
90
100
81
82
96
93
92
102
102
91
88
84
89
97
88
85
79
71
66
67
69
63
71
104
120
125
137
140
139
131
138
136
132
155
125
132
131
116
126
119
118
116
117
112
122
153
159
174
170
123
81
69
69
83
93
79
77
80
79
78
100
116
99
82
114
108
85
82
93
82
99
96
94
94
94
87
86
87
92
81
76
73
75
83
87
76
140
106
104
92
92
150
162
154
150
148
138
178
88
140
164
133
151
105
101
119
112
126
155
199
216
218
211
118
69
124
125
73
79
91
93
80
82
105
126
168
159
105
126
101
83
78
117
142
148
118
96
93
95
89
91
97
87
79
74
76
84
98
153
166
207
165
152
122
141
202
201
196
193
172
171
179
106
176
196
182
198
139
131
161
153
171
197
210
223
223
217
176
92
81
114
73
70
73
83
86
85
93
135
199
191
176
143
96
82
84
207
220
207
178
102
92
95
86
86
127
110
78
77
72
65
71
103
191
219
197
183
167
179
214
208
201
204
193
197
194
152
198
210
203
210
174
163
186
212
195
202
214
223
224
217
197
187
174
72
106
80
117
118
87
87
125
165
211
187
115
84
74
81
91
215
224
225
216
107
92
94
86
103
114
105
80
95
74
65
66
92
197
224
209
201
193
203
220
213
204
208
205
207
201
179
207
213
210
213
186
184
209
234
211
209
217
225
227
220
188
133
163
199
166
182
197
156
84
86
122
161
114
122
103
116
77
82
86
216
225
224
226
110
101
108
87
143
168
128
114
102
79
87
64
82
193
227
215
206
199
211
223
215
206
209
207
210
209
195
211
215
210
214
193
191
231
213
215
210
217
226
226
219
207
204
216
221
213
212
216
195
83
82
85
117
96
90
82
84
80
79
81
217
225
225
226
115
100
108
89
121
131
129
111
78
103
189
178
179
219
228
217
208
202
211
223
214
205
207
209
211
210
198
212
215
212
215
198
208
231
188
210
207
216
224
224
218
207
203
217
221
213
212
217
192
82
83
142
193
138
124
134
90
77
77
80
214
224
225
225
111
89
88
85
112
103
100
93
92
80
164
177
143
204
211
200
176
206
212
222
212
204
208
207
210
208
198
212
214
212
215
200
233
227
179
215
192
215
223
222
217
207
203
214
219
213
212
218
189
83
83
140
149
142
118
171
93
71
72
76
216
223
225
224
103
82
81
79
185
193
156
132
157
91
113
92
84
126
150
146
187
210
215
222
213
205
207
205
210
208
196
209
212
211
213
207
242
188
196
229
178
214
221
221
216
206
201
214
219
179
195
200
182
78
77
144
174
192
197
184
101
81
73
77
215
223
222
224
104
83
77
76
201
196
149
141
173
95
74
70
69
85
129
206
215
190
211
222
211
204
206
205
209
210
199
211
210
210
212
225
213
191
235
239
186
212
220
221
214
206
203
212
218
209
195
189
156
78
77
159
199
213
205
184
167
143
75
79
215
223
224
224
107
86
81
79
205
209
148
154
151
120
76
73
72
76
176
227
203
131
160
225
211
205
206
205
209
210
200
210
209
208
210
211
225
236
244
241
213
211
219
220
215
207
203
211
215
209
208
213
182
76
76
159
216
217
204
192
197
173
76
79
215
222
223
223
111
87
85
80
205
205
145
134
164
84
76
78
77
77
114
181
118
102
112
156
201
203
204
203
207
208
198
205
207
207
208
200
204
186
206
196
194
183
219
219
214
206
203
211
215
208
208
212
180
75
76
155
215
215
210
198
201
163
80
82
215
220
220
219
113
87
88
81
201
206
163
82
95
78
71
76
77
82
74
72
103
94
93
148
202
209
206
205
208
207
201
205
205
206
205
130
111
99
94
87
88
168
218
216
212
205
203
208
213
208
207
212
175
75
78
157
214
212
209
204
200
193
78
86
215
219
218
219
117
88
88
83
206
207
165
120
120
82
84
79
75
71
67
66
81
87
87
144
169
212
209
205
210
210
204
205
207
207
207
196
195
177
195
176
148
158
216
216
211
203
202
208
211
207
206
209
172
77
77
154
212
212
207
205
200
197
80
87
216
221
220
220
119
85
84
82
208
208
163
153
202
153
194
173
73
76
70
63
83
84
126
197
207
205
205
206
209
209
202
206
205
206
206
179
153
154
182
182
129
193
215
214
209
205
202
205
208
206
207
211
169
75
78
155
213
209
205
202
199
195
81
86
213
221
218
218
122
86
84
84
208
210
158
137
153
130
103
141
79
74
65
66
70
71
92
74
129
208
207
207
210
211
202
204
207
205
206
191
152
135
144
169
144
207
218
215
209
203
201
203
205
204
205
208
167
77
79
150
209
206
201
199
195
194
83
85
213
220
216
219
124
85
82
85
202
193
147
106
118
91
105
94
72
69
67
65
65
72
85
120
197
209
207
207
213
211
205
204
208
205
205
201
167
141
138
159
170
212
218
214
208
204
201
202
205
204
205
208
168
81
84
147
205
203
199
198
195
193
81
83
213
215
216
219
129
82
79
89
190
134
120
92
112
141
140
114
73
70
67
64
68
72
110
149
198
209
208
207
214
213
208
206
207
208
207
202
182
146
136
167
192
216
221
215
209
203
203
204
207
206
204
207
165
83
87
147
203
201
198
195
194
194
81
84
214
216
215
214
121
79
81
99
209
198
137
111
174
195
165
114
77
91
82
69
69
67
100
169
214
210
209
210
215
214
211
210
209
210
209
206
201
166
138
178
203
220
217
215
208
204
203
205
204
203
204
206
163
82
84
146
203
200
195
194
193
197
78
82
212
218
214
181
92
82
82
107
211
205
137
126
204
206
196
127
90
135
116
102
104
114
172
212
212
210
210
211
215
213
132
170
183
131
200
210
207
190
151
188
217
217
162
200
207
206
201
204
203
203
201
204
161
84
85
131
204
199
197
194
193
198
74
79
166
188
200
127
91
83
80
92
198
207
158
135
200
205
202
161
143
188
178
105
85
114
163
213
213
210
212
213
203
195
124
97
123
128
194
187
182
159
169
173
224
211
157
162
204
204
202
201
204
205
201
202
158
85
87
119
203
199
197
195
196
195
