P3
# Created by GIMP version 2.10.34 PNM plug-in
103 42
255
238
178
68
240
178
77
205
140
46
184
118
31
160
93
14
146
78
3
140
72
0
144
76
3
162
94
21
182
115
37
217
147
61
231
162
67
244
177
73
248
182
70
246
182
59
245
182
51
248
187
45
250
190
42
248
186
39
248
186
39
248
186
39
250
185
39
250
186
37
250
185
39
250
185
41
248
186
43
248
186
43
248
186
43
248
186
43
248
186
41
248
186
41
248
186
41
248
186
41
248
186
41
248
186
41
248
186
41
248
186
41
248
186
41
248
186
41
248
186
41
248
186
41
248
186
41
248
186
41
248
186
41
248
186
41
248
186
41
248
186
41
248
186
41
248
186
41
248
186
41
248
186
41
248
186
41
248
186
41
248
186
41
248
186
41
248
186
41
248
186
41
248
186
41
248
186
41
248
186
41
248
186
41
248
186
41
248
186
41
248
186
41
248
186
41
248
186
41
248
186
41
248
186
41
248
186
41
248
186
41
248
186
41
248
186
41
248
186
41
248
186
41
248
186
43
248
186
43
248
186
43
248
186
41
248
186
41
247
187
41
247
186
44
245
185
52
246
184
63
242
178
70
230
164
67
210
143
54
184
116
35
161
91
19
145
74
8
138
67
3
146
72
7
160
88
16
183
112
34
209
139
51
232
164
65
243
179
69
247
185
64
247
187
55
245
187
44
247
187
39
248
186
39
250
185
39
250
185
41
211
153
69
176
116
46
125
61
0
107
40
0
101
29
0
101
28
0
93
21
0
100
28
0
95
25
0
108
39
0
130
57
12
170
100
41
224
158
84
242
178
88
246
186
76
243
186
57
245
189
44
247
190
39
249
189
43
250
187
46
251
185
49
250
183
43
250
184
36
252
186
37
252
185
44
249
183
45
248
185
44
247
186
44
247
186
44
247
186
43
247
186
43
247
186
43
248
186
43
248
186
43
248
186
41
248
186
41
248
186
43
248
186
43
248
186
43
248
186
43
248
186
43
248
186
43
248
186
41
248
186
41
248
186
41
248
186
41
248
186
41
248
186
41
248
186
41
248
186
41
248
186
41
248
186
41
248
186
41
248
186
41
248
186
41
248
186
41
248
186
41
248
186
41
250
185
41
250
185
41
250
185
41
250
185
41
250
185
41
250
185
41
248
186
41
248
186
41
248
186
41
248
186
41
247
187
41
247
187
41
247
187
41
247
187
41
247
187
41
247
187
41
246
185
42
249
188
46
246
185
45
245
184
44
246
185
42
243
185
42
246
188
52
241
185
64
240
182
85
212
153
75
167
106
43
124
61
8
106
42
0
96
31
0
87
18
0
90
18
0
100
25
2
97
21
0
115
40
1
127
56
4
172
105
37
220
158
75
239
184
83
235
183
65
250
197
57
243
186
37
249
184
40
251
184
43
251
182
45
142
87
23
95
39
0
83
24
0
86
23
0
89
20
4
91
21
9
93
22
4
92
21
1
87
16
0
87
14
0
89
15
0
110
38
0
143
73
21
210
146
72
237
179
82
242
188
66
248
193
49
246
191
39
245
187
43
249
185
49
251
184
53
250
182
47
251
184
35
253
186
35
253
185
42
251
183
46
248
185
46
247
186
46
247
186
44
247
186
44
247
186
43
247
186
43
248
186
43
248
186
43
248
186
41
248
186
41
248
186
43
248
186
43
248
186
43
248
186
43
248
186
43
248
186
43
248
186
41
248
186
41
248
186
41
248
186
41
248
186
41
248
186
41
248
186
41
248
186
41
248
186
41
248
186
41
248
186
41
248
186
41
248
186
41
248
186
41
248
186
41
248
186
41
250
185
41
250
185
41
250
185
41
250
185
41
250
185
41
250
185
41
248
186
41
248
186
41
248
186
41
248
186
41
247
187
41
247
187
41
247
187
41
247
187
41
247
187
41
247
187
41
250
190
44
241
180
38
251
189
52
247
185
48
239
180
40
250
192
56
241
186
59
237
183
75
195
140
60
138
83
26
97
42
1
87
31
0
84
27
0
88
27
6
91
29
16
94
27
19
92
18
15
94
20
11
96
21
0
88
15
0
113
45
0
148
84
22
201
144
63
239
186
84
246
193
65
239
182
41
255
190
50
252
183
44
248
179
42
86
35
0
86
37
5
107
58
26
123
71
47
128
70
56
122
60
47
116
53
35
107
41
19
100
32
13
100
27
8
99
23
0
87
12
0
98
27
0
145
79
19
215
154
73
230
173
66
244
188
53
242
186
39
242
184
40
248
185
46
251
184
53
251
183
48
251
184
35
252
185
32
253
185
38
251
184
41
248
185
44
247
186
44
247
186
44
247
186
44
247
186
43
247
186
43
248
186
41
248
186
41
248
186
41
248
186
41
248
186
41
248
186
41
248
186
43
248
186
43
248
186
43
248
186
43
248
186
41
248
186
41
248
186
41
248
186
41
248
186
41
248
186
41
248
186
41
248
186
41
248
186
41
248
186
41
248
186
41
248
186
41
248
186
41
248
186
41
248
186
41
248
186
41
250
185
41
250
185
41
250
185
41
250
185
41
248
186
41
248
186
41
248
186
41
248
186
41
248
186
41
248
186
41
248
186
41
248
186
41
248
186
41
248
186
41
248
186
41
248
186
41
252
190
45
239
177
34
252
190
53
243
183
50
242
184
50
245
190
61
237
184
68
207
154
58
130
80
11
84
33
0
81
31
0
108
58
31
115
65
40
120
69
48
120
68
55
103
45
34
96
30
18
107
35
20
97
25
0
93
20
0
88
16
0
99
31
0
146
85
22
209
153
70
245
189
78
237
180
51
253
189
53
251
184
44
249
180
41
97
53
26
151
112
95
173
136
117
187
148
131
188
144
133
171
122
108
147
92
72
122
61
40
101
33
14
109
36
17
113
37
13
103
26
0
86
11
0
103
32
0
151
86
22
230
169
80
236
178
55
252
195
54
241
183
40
247
186
44
252
185
52
251
183
48
251
184
35
251
184
31
252
185
34
251
185
37
248
186
43
247
186
44
247
186
44
247
186
43
247
186
43
247
187
41
248
186
41
248
186
41
248
186
41
248
186
41
248
186
41
248
186
41
248
186
43
248
186
43
248
186
43
248
186
43
248
186
41
248
186
41
248
186
41
248
186
41
248
186
41
248
186
41
248
186
41
248
186
41
248
186
41
248
186
41
248
186
41
248
186
41
248
186
41
248
186
41
248
186
41
248
186
41
250
185
41
250
185
41
250
185
41
250
185
41
248
186
41
248
186
41
248
186
41
248
186
41
248
186
41
248
186
41
248
186
41
248
186
41
248
186
41
248
186
41
248
186
41
248
186
41
249
187
40
245
183
38
249
187
50
241
181
51
250
192
66
235
180
63
224
172
70
145
97
15
81
34
0
95
51
14
141
99
74
183
142
122
187
149
128
187
149
130
172
132
120
137
89
77
112
53
35
109
43
19
103
32
4
120
46
17
97
20
0
93
18
0
95
28
0
141
80
17
230
171
79
240
183
68
242
179
48
250
184
44
252
185
44
155
118
109
202
172
172
236
213
207
238
215
207
242
213
205
233
197
185
198
153
132
159
105
81
107
40
21
112
39
20
111
33
10
106
29
3
102
26
3
85
11
0
98
30
0
189
125
54
239
178
72
247
188
58
242
183
43
248
187
45
252
185
52
252
184
47
251
184
35
251
185
29
251
185
29
250
185
33
248
186
41
247
186
44
247
186
43
247
186
43
247
186
43
247
187
41
248
186
41
248
186
39
248
186
39
248
186
39
248
186
39
248
186
39
248
186
41
248
186
41
248
186
41
248
186
41
248
186
41
248
186
41
248
186
41
248
186
41
248
186
41
248
186
41
248
186
41
248
186
41
248
186
41
248
186
41
248
186
41
248
186
41
248
186
41
248
186
41
248
186
41
248
186
41
248
186
41
248
186
41
248
186
41
248
186
41
248
186
41
248
186
41
248
186
41
248
186
41
248
186
41
248
186
41
248
186
41
248
186
41
250
185
41
250
185
41
250
185
41
250
185
39
248
184
35
251
189
42
247
185
50
243
182
57
250
191
75
231
178
74
184
134
49
90
45
0
79
37
0
146
108
85
211
178
163
240
210
199
243
215
201
238
212
197
221
194
183
192
156
142
150
100
77
109
48
19
104
35
4
124
49
20
112
31
12
104
23
4
84
9
0
98
29
0
186
123
54
246
186
90
238
178
54
247
186
46
251
186
42
208
179
181
233
213
222
255
246
248
251
240
238
253
238
233
255
233
223
237
200
181
193
143
120
128
63
43
111
36
17
116
38
15
107
26
5
123
44
27
94
17
0
85
11
0
122
55
2
237
173
83
234
175
57
243
185
51
248
187
47
250
186
52
250
184
44
250
184
35
251
185
29
252
186
30
250
185
33
248
186
41
247
186
44
247
186
43
247
186
43
247
187
41
247
187
41
248
186
39
248
186
39
248
186
39
248
186
39
248
186
39
248
186
39
248
186
41
248
186
41
248
186
41
248
186
41
248
186
41
248
186
41
248
186
41
248
186
41
248
186
41
248
186
41
248
186
41
248
186
41
248
186
41
248
186
41
248
186
41
248
186
41
248
186
41
248
186
41
248
186
41
248
186
41
248
186
41
248
186
41
248
186
41
248
186
41
248
186
41
248
186
41
248
186
41
248
186
41
248
186
41
248
186
41
248
186
41
248
186
41
250
185
41
250
185
41
250
185
41
250
185
39
248
185
32
252
187
41
248
184
50
247
185
64
239
181
74
225
171
83
127
78
9
70
28
0
122
85
58
202
170
157
249
221
217
255
239
234
255
245
238
255
239
229
245
228
218
235
209
194
195
151
126
128
69
37
113
44
11
112
35
7
121
38
22
108
24
14
100
20
11
89
14
0
128
62
12
230
169
88
245
186
70
246
187
49
246
184
37
240
217
225
255
244
255
255
253
255
254
254
254
254
249
246
255
243
235
255
228
211
214
166
144
166
101
81
116
41
20
117
35
14
121
36
16
112
30
18
118
39
26
83
7
0
101
29
0
197
133
59
242
180
77
244
185
59
248
186
49
249
185
49
249
184
42
250
185
33
252
187
31
252
187
33
250
186
36
248
186
41
247
186
43
247
186
43
247
186
43
247
187
41
247
187
41
248
186
39
248
186
39
248
186
39
248
186
39
248
186
39
248
186
39
248
186
39
248
186
39
248
186
41
248
186
41
248
186
41
248
186
41
248
186
41
248
186
41
248
186
41
248
186
41
248
186
41
248
186
41
248
186
41
248
186
41
248
186
41
248
186
41
248
186
41
248
186
41
248
186
41
248
186
41
247
187
41
247
187
41
247
187
41
247
187
41
247
187
41
247
187
41
248
186
41
248
186
41
248
186
41
248
186
41
250
185
41
250
185
41
250
185
41
250
185
41
250
185
41
250
186
37
250
185
31
252
188
39
248
184
52
246
185
70
233
175
78
189
135
61
83
36
0
79
38
6
170
137
122
239
211
208
255
241
243
255
244
247
255
251
248
255
246
240
251
242
233
250
231
216
214
174
149
156
99
69
114
46
11
108
31
1
123
35
21
109
20
14
111
26
23
86
8
0
91
23
0
191
128
61
243
185
77
244
186
50
246
186
38
255
236
240
255
249
255
244
245
250
252
255
255
255
254
252
255
244
236
255
237
222
217
169
149
189
124
104
115
38
18
114
29
8
128
41
22
109
26
12
116
34
23
100
22
12
92
18
0
148
82
21
239
175
85
244
183
66
246
186
53
247
185
48
247
185
40
250
187
34
253
188
34
253
187
38
251
186
40
248
186
41
247
186
43
247
186
43
247
186
43
247
187
41
247
187
41
248
186
39
248
186
39
248
186
39
248
186
39
248
186
39
248
186
39
248
186
39
248
186
39
248
186
41
248
186
41
248
186
41
248
186
41
248
186
41
248
186
41
248
186
41
248
186
41
248
186
41
248
186
41
248
186
41
248
186
41
248
186
41
248
186
41
248
186
41
248
186
41
248
186
41
248
186
41
247
187
41
247
187
41
247
187
41
247
187
41
247
187
41
247
187
41
248
186
41
248
186
41
248
186
41
248
186
41
250
185
41
250
185
41
250
185
41
250
185
41
250
185
41
250
186
37
250
185
31
253
189
39
245
181
49
243
181
70
236
176
90
148
94
30
67
18
0
93
52
32
195
162
157
254
229
233
255
244
253
254
239
246
255
247
246
255
249
243
255
250
240
255
237
223
219
178
156
183
126
97
112
44
7
119
40
7
125
36
18
117
27
19
116
31
28
90
12
2
82
10
0
152
89
35
234
175
73
241
184
51
249
192
43
255
236
232
255
246
249
249
249
251
253
253
253
255
250
247
255
245
238
255
227
215
219
168
149
190
124
102
114
36
13
115
28
8
123
35
15
111
25
8
119
37
23
103
25
15
87
12
0
123
56
4
235
170
90
243
181
72
245
185
55
247
186
46
247
185
38
250
187
34
252
189
36
252
185
42
250
184
44
248
186
43
247
186
43
247
186
43
247
186
43
247
187
41
247
187
41
248
186
39
248
186
39
248
186
39
248
186
39
248
186
39
248
186
39
248
186
39
248
186
39
248
186
41
248
186
41
248
186
41
248
186
41
248
186
41
248
186
41
248
186
41
248
186
41
248
186
41
248
186
41
248
186
41
248
186
41
248
186
41
248
186
41
248
186
41
248
186
41
248
186
41
248
186
41
247
187
41
247
187
41
247
187
41
247
187
41
247
187
41
247
187
41
248
186
41
248
186
41
248
186
41
248
186
41
250
185
41
250
185
41
250
185
41
250
185
41
250
185
41
250
186
37
251
186
32
252
188
38
247
183
51
244
182
73
233
172
92
116
61
7
66
15
0
105
63
51
195
161
162
255
229
236
255
240
249
255
244
251
255
248
248
255
248
243
250
242
231
255
238
223
218
175
159
181
121
97
107
37
1
120
40
5
119
31
7
123
34
18
111
27
16
102
24
12
81
8
0
112
48
0
234
174
78
245
188
59
243
185
41
237
213
201
248
233
228
255
248
246
253
245
242
255
243
240
255
241
234
252
212
200
212
156
139
166
98
75
119
39
14
114
26
4
122
31
10
117
29
9
125
42
26
107
27
18
82
7
0
107
38
0
226
162
90
242
181
75
245
186
58
246
187
47
247
187
37
250
187
34
250
186
36
251
184
44
249
183
47
248
185
44
247
186
43
247
186
43
247
186
43
247
187
41
247
187
41
248
186
39
248
186
39
248
186
39
248
186
39
248
186
39
248
186
39
248
186
39
248
186
39
248
186
41
248
186
41
248
186
41
248
186
41
248
186
41
248
186
41
248
186
41
248
186
41
248
186
41
248
186
41
248
186
41
248
186
41
248
186
41
248
186
41
248
186
41
248
186
41
248
186
41
248
186
41
247
187
41
247
187
41
247
187
41
247
187
41
247
187
41
247
187
41
248
186
41
248
186
41
248
186
41
248
186
41
250
185
41
250
185
41
250
185
41
250
185
41
250
185
41
250
186
37
249
184
30
250
186
37
254
189
59
238
175
69
232
170
95
96
38
0
68
16
0
98
51
45
185
146
149
238
207
213
255
230
236
255
238
243
255
244
245
255
247
240
255
241
228
245
217
203
205
155
144
161
96
78
108
34
0
123
41
3
119
30
0
121
33
9
116
34
13
109
32
14
77
6
0
97
30
0
231
170
79
243
185
60
241
183
40
209
174
154
239
211
199
255
234
223
250
227
219
255
229
220
255
223
214
225
176
162
187
126
108
131
60
38
120
40
15
117
27
3
122
30
5
122
32
8
125
40
19
109
29
18
85
10
0
94
25
0
213
148
80
240
178
77
244
185
59
246
187
47
247
187
37
249
186
33
250
186
37
251
183
46
249
182
49
248
185
46
247
186
44
247
186
43
247
186
43
247
187
41
247
187
41
248
186
39
248
186
39
248
186
39
248
186
39
248
186
39
248
186
39
248
186
41
248
186
41
248
186
41
248
186
41
248
186
41
248
186
41
248
186
41
248
186
41
248
186
41
248
186
41
248
186
41
248
186
41
248
186
41
248
186
41
248
186
41
248
186
41
248
186
41
248
186
41
248
186
41
248
186
41
248
186
41
248
186
41
248
186
41
248
186
41
248
186
41
248
186
41
248
186
41
248
186
41
248
186
41
248
186
41
248
186
41
248
186
41
250
185
41
250
185
41
250
185
41
250
185
39
247
184
31
250
185
39
252
187
57
238
173
69
232
168
96
83
22
0
74
17
0
91
41
34
149
105
104
204
165
166
244
210
211
255
223
224
255
228
225
255
226
218
248
219
203
225
186
169
180
120
110
135
63
48
111
32
0
125
42
2
119
30
0
120
33
5
118
39
9
111
37
10
79
8
0
87
19
0
214
153
64
242
182
60
244
185
47
162
116
92
201
160
142
223
184
169
228
188
176
232
188
175
222
173
159
180
121
107
146
79
62
108
33
10
118
37
10
123
31
6
126
32
6
122
32
5
118
32
9
112
30
18
95
18
0
91
22
0
205
140
72
237
175
72
241
184
55
246
187
47
247
187
39
247
186
35
250
186
37
252
184
47
251
185
49
248
185
46
247
186
44
247
186
43
247
186
43
247
186
43
247
187
41
248
186
41
248
186
39
248
186
39
248
186
39
248
186
39
248
186
39
248
186
41
248
186
41
248
186
41
248
186
41
248
186
41
248
186
41
248
186
41
248
186
41
248
186
41
248
186
41
248
186
41
248
186
41
248
186
41
248
186
41
248
186
41
248
186
41
248
186
41
248
186
41
248
186
41
248
186
41
248
186
41
248
186
41
248
186
41
248
186
41
248
186
41
248
186
41
248
186
41
248
186
41
248
186
41
248
186
41
248
186
41
248
186
41
250
185
41
250
185
41
250
185
41
250
185
39
250
186
36
249
187
42
242
179
50
245
180
76
232
165
95
84
19
0
81
20
1
96
39
32
109
59
52
159
112
106
203
158
153
221
178
171
235
190
184
224
180
169
211
165
149
186
133
115
149
79
69
119
40
25
118
35
3
124
39
2
120
34
1
121
36
5
112
36
2
108
37
5
83
12
0
91
23
0
196
132
45
242
182
62
252
190
55
119
59
33
146
88
68
169
110
94
185
126
110
182
119
102
165
98
81
140
69
51
117
42
23
106
28
6
116
32
6
128
34
8
125
30
2
123
32
3
119
33
8
113
31
19
95
18
0
89
20
0
207
145
72
235
177
69
241
184
53
246
187
47
247
187
41
247
186
36
248
187
37
251
186
44
251
185
45
248
185
44
247
186
44
247
186
44
247
186
43
247
186
43
247
187
41
248
186
41
248
186
41
248
186
41
248
186
41
248
186
41
248
186
41
248
186
43
248
186
43
248
186
43
248
186
43
248
186
41
248
186
41
248
186
41
248
186
41
248
186
41
248
186
41
248
186
41
248
186
41
248
186
41
248
186
41
248
186
41
248
186
41
248
186
41
248
186
41
248
186
41
248
186
41
250
185
41
250
185
41
250
185
41
250
185
41
248
186
41
248
186
41
248
186
41
248
186
41
248
186
41
248
186
41
248
186
41
248
186
41
248
186
41
248
186
41
248
186
41
248
186
39
250
189
39
248
186
43
241
178
49
249
184
80
232
165
94
86
19
0
84
18
0
100
38
25
95
36
22
120
64
49
144
88
73
161
105
90
190
132
120
181
119
104
158
96
75
141
73
52
126
47
32
117
30
11
122
35
5
120
31
0
122
35
7
122
39
9
108
34
0
106
37
4
78
10
0
93
25
0
201
135
49
247
182
64
253
191
56
106
36
11
121
49
27
127
52
33
143
66
48
134
56
34
124
44
21
122
41
22
112
30
9
120
39
18
118
32
7
128
33
5
123
25
0
126
32
4
126
38
16
112
28
17
86
9
0
91
23
0
219
158
78
238
181
66
243
187
52
245
188
47
245
187
43
247
185
40
248
186
39
250
186
37
247
185
38
248
186
43
247
186
44
247
186
44
247
186
44
247
186
43
247
186
43
248
186
41
248
186
41
248
186
41
248
186
41
248
186
41
248
186
41
248
186
43
248
186
43
248
186
43
248
186
43
248
186
41
248
186
41
248
186
41
248
186
41
248
186
41
248
186
41
248
186
41
248
186
41
248
186
41
248
186
41
248
186
41
248
186
41
248
186
41
248
186
41
248
186
41
248
186
41
250
185
41
250
185
41
250
185
41
250
185
41
248
186
41
248
186
41
248
186
41
248
186
41
248
186
41
248
186
41
248
186
41
248
186
41
248
186
41
248
186
41
248
186
41
248
186
41
249
187
40
246
183
42
249
186
57
247
182
78
233
165
94
92
21
0
82
12
0
100
31
15
99
34
14
108
43
21
111
46
24
119
53
31
141
69
54
136
60
44
121
45
21
122
40
16
119
31
11
120
28
7
124
33
2
116
27
0
120
32
8
120
40
13
108
35
0
104
38
4
72
4
0
96
27
0
225
158
71
248
181
64
249
185
53
115
34
13
125
39
22
118
29
11
128
36
15
121
29
4
119
27
2
125
34
13
117
30
10
125
40
19
121
35
10
126
31
1
126
29
0
127
33
5
124
36
16
105
21
11
88
11
0
106
39
0
230
169
86
240
184
65
244
188
51
245
188
49
245
187
44
248
186
43
248
186
39
250
187
34
247
186
33
248
186
43
247
186
46
247
186
44
247
186
44
247
186
43
247
186
43
248
186
43
248
186
43
248
186
41
248
186
41
248
186
43
248
186
43
248
186
43
248
186
43
248
186
43
248
186
43
248
186
41
248
186
41
248
186
41
248
186
41
248
186
41
248
186
41
248
186
41
248
186
41
248
186
41
248
186
41
248
186
41
248
186
41
248
186
41
248
186
41
248
186
41
248
186
41
250
185
41
250
185
41
250
185
41
250
185
41
250
185
41
250
185
41
248
186
41
248
186
41
248
186
41
248
186
41
247
187
41
247
187
41
247
187
41
247
187
41
247
187
41
247
187
41
246
186
40
245
184
42
250
187
58
249
182
77
234
164
92
116
44
0
83
9
0
98
26
4
106
34
9
110
39
9
113
39
10
116
39
13
116
34
13
119
32
13
118
28
4
124
33
6
124
30
5
122
26
1
125
30
0
123
32
3
116
29
10
116
38
16
108
37
5
100
34
0
74
6
0
110
41
2
243
173
87
249
180
61
249
182
51
113
30
12
119
32
13
123
31
8
126
32
6
125
30
0
130
35
5
129
35
10
118
27
6
117
30
10
120
32
8
124
31
0
131
36
6
126
34
11
113
26
9
96
14
3
97
21
0
125
59
1
236
177
85
240
184
61
241
188
48
244
187
48
244
185
45
248
185
44
252
187
41
251
188
33
250
187
32
248
186
39
247
186
43
247
186
44
247
186
44
247
186
44
247
186
44
247
186
44
247
186
44
248
185
44
248
186
43
248
185
44
248
186
43
248
186
43
248
186
43
248
186
43
248
186
43
248
186
41
248
186
41
248
186
39
248
187
37
248
187
37
248
186
39
248
186
41
248
186
43
248
185
44
248
186
43
248
186
41
248
186
41
248
186
39
247
187
39
248
186
39
248
186
41
248
186
41
250
185
41
250
185
41
250
185
41
250
185
41
250
185
41
248
186
41
248
186
41
248
186
41
248
186
41
247
187
41
247
187
41
247
187
41
247
187
41
247
187
41
247
187
41
245
185
39
248
187
45
243
180
49
250
187
74
232
166
82
145
76
19
85
12
0
95
23
0
107
35
10
108
34
7
115
38
8
123
42
13
115
27
3
126
34
11
126
30
6
125
27
0
131
33
6
120
25
0
124
31
0
132
43
13
114
29
9
113
34
17
108
38
12
93
26
0
81
13
0
128
59
17
242
175
86
243
178
58
249
185
51
112
33
16
114
32
10
122
39
7
122
38
1
120
35
0
119
31
0
122
31
2
125
33
10
123
31
10
117
26
5
120
30
4
119
31
7
123
37
24
107
25
14
90
11
0
99
26
0
173
109
38
236
178
78
242
189
61
240
187
45
242
185
44
245
187
44
249
186
45
250
185
41
251
184
33
252
187
33
248
187
36
247
187
39
247
187
41
247
186
44
245
186
46
245
186
48
245
186
50
245
186
50
247
185
50
247
185
48
247
186
46
247
186
44
248
186
43
248
186
43
250
185
41
248
186
41
248
186
43
247
187
39
247
188
34
247
188
32
248
188
32
248
187
36
248
186
41
248
185
46
248
184
50
248
184
48
247
186
43
247
187
39
247
187
37
245
188
36
247
187
37
247
187
39
248
186
39
248
186
39
248
186
39
248
186
39
248
186
41
248
186
41
248
186
41
248
186
41
248
186
41
248
186
41
248
186
43
248
186
43
248
186
43
248
186
43
248
186
43
248
186
43
247
185
42
245
184
42
245
186
46
245
186
60
238
179
77
178
116
41
80
16
0
88
21
0
100
32
13
112
39
22
117
41
17
116
35
6
120
33
3
125
31
3
125
26
3
127
29
4
128
30
1
124
31
0
118
28
0
124
38
5
119
37
13
104
27
9
111
39
25
80
11
0
84
17
0
171
108
55
245
184
91
235
177
52
246
189
48
103
26
8
115
37
14
120
41
8
116
37
0
117
35
0
122
38
1
125
39
6
124
34
7
124
32
7
126
36
12
114
28
3
117
32
12
101
19
8
99
19
8
91
15
0
101
30
0
218
155
75
239
183
72
236
184
49
241
189
44
245
189
44
245
187
43
247
184
43
252
185
42
253
186
37
251
184
33
248
187
36
247
187
37
247
187
41
247
186
44
247
186
46
245
186
46
245
186
48
245
186
48
245
186
46
245
187
44
247
186
43
247
186
43
248
186
41
248
186
41
250
185
41
248
186
41
248
186
43
247
187
41
247
188
34
247
189
30
248
188
30
248
187
34
248
186
43
248
184
48
248
184
52
248
184
50
247
186
44
247
187
39
247
188
36
245
188
36
245
188
37
245
188
37
248
186
39
248
186
39
248
186
39
248
186
39
248
186
41
248
186
41
248
186
41
248
186
41
248
186
41
248
186
41
248
186
43
248
186
43
248
186
43
248
186
43
248
186
43
248
186
43
246
183
42
246
185
43
247
189
46
241
184
51
236
181
65
218
161
72
108
47
0
80
15
0
96
27
11
112
40
26
108
32
9
116
37
7
125
39
6
127
36
5
127
31
7
132
36
14
124
28
4
115
24
0
124
38
3
115
32
0
119
39
14
101
24
4
103
31
17
88
20
1
103
38
0
202
141
76
245
188
85
239
184
55
244
188
43
101
26
5
111
35
11
112
37
5
108
33
0
113
35
0
123
44
5
125
43
6
116
34
0
116
32
0
123
38
7
120
38
14
115
34
15
108
26
12
92
14
0
98
23
0
149
80
21
234
173
82
247
191
72
233
180
40
243
189
39
247
191
42
246
186
40
245
183
40
252
185
42
254
186
39
249
183
35
250
185
41
248
186
43
248
186
43
247
186
43
247
187
41
247
187
39
247
187
37
247
187
37
247
188
36
247
188
34
247
188
34
247
188
36
248
187
37
248
187
37
250
185
39
248
186
41
248
185
44
247
186
43
248
187
36
248
188
32
248
188
32
248
187
36
250
184
44
250
184
48
248
184
52
248
184
50
248
185
44
247
187
41
247
187
37
247
188
36
245
188
37
245
188
39
248
186
39
248
186
39
248
186
39
248
186
39
248
186
41
248
186
41
248
186
41
248
186
41
248
186
41
248
186
41
248
186
43
248
186
43
248
186
43
248
186
43
248
186
43
248
185
44
247
183
47
250
188
51
246
188
45
239
181
45
240
184
63
241
183
86
159
98
33
88
23
0
84
16
0
109
36
19
105
30
7
112
32
5
117
34
4
120
31
1
119
27
2
124
32
11
126
33
18
120
31
13
131
45
22
111
30
3
113
36
10
106
32
7
87
15
0
85
17
0
157
92
36
237
176
95
235
179
66
241
187
52
248
192
43
95
23
0
103
29
4
111
37
8
111
36
5
114
38
6
118
42
10
118
39
8
113
34
1
114
34
0
117
38
7
115
35
12
102
24
2
95
17
0
85
10
0
122
52
1
216
150
76
234
172
69
252
194
68
237
182
38
244
189
36
247
190
39
246
186
36
246
184
39
251
186
42
252
186
40
250
183
40
250
184
44
248
185
44
248
186
43
248
186
41
248
186
39
247
188
36
247
188
34
247
188
32
247
189
30
247
189
30
247
188
32
247
188
34
248
187
37
248
186
39
250
185
43
248
185
44
248
184
48
247
186
46
248
186
39
248
187
36
248
187
36
248
187
37
250
184
44
250
184
48
248
184
50
248
184
48
248
185
44
248
186
41
247
187
37
247
187
37
247
187
39
247
187
39
248
186
39
248
186
39
248
186
39
248
186
39
248
186
41
248
186
41
248
186
41
248
186
41
248
186
41
248
186
41
248
186
43
248
186
43
248
186
43
248
186
43
248
186
43
248
185
44
247
183
47
253
190
51
245
185
39
242
184
40
247
190
59
230
172
62
216
155
75
134
69
15
84
15
0
96
24
2
111
36
13
112
35
9
117
36
9
120
34
9
120
32
12
119
30
14
116
27
19
118
31
22
118
32
17
115
35
12
103
26
0
103
30
0
85
16
0
118
53
0
213
150
73
249
190
90
229
174
48
245
190
46
249
194
41
91
20
0
91
19
0
100
28
6
106
33
14
110
34
18
107
31
15
107
32
13
110
35
16
112
36
13
109
33
10
104
28
5
96
20
0
83
9
0
120
50
0
175
108
38
243
180
87
246
187
71
243
185
51
244
188
41
244
188
33
244
187
35
247
188
36
249
187
40
250
185
41
250
185
43
250
184
44
250
184
46
250
184
46
250
184
44
248
186
41
248
186
39
248
187
36
247
188
34
247
188
34
247
188
32
247
188
34
248
187
37
248
186
39
248
186
43
248
185
46
248
184
50
248
184
52
248
184
52
248
184
48
250
185
43
250
185
39
250
186
37
250
185
39
250
185
43
250
184
46
250
184
46
250
184
46
248
186
43
248
186
41
248
187
37
247
187
37
247
187
41
247
187
41
248
186
41
248
186
41
248
186
41
248
186
41
248
186
41
248
186
41
248
186
41
248
186
41
248
186
41
248
186
41
248
186
41
248
186
41
248
186
43
248
186
43
248
186
43
248
186
43
246
183
42
250
188
41
245
186
30
247
191
34
246
190
43
230
172
46
253
190
93
193
129
58
115
47
2
80
9
0
96
22
0
97
21
0
109
31
9
115
34
15
116
33
19
112
27
20
116
31
28
116
33
29
106
24
12
113
35
13
92
17
0
92
20
0
119
51
0
191
128
48
241
179
80
246
187
67
242
186
49
247
191
42
244
188
33
123
55
8
87
19
0
87
17
0
95
24
4
100
28
13
100
28
14
103
29
16
106
33
18
101
28
11
94
22
0
90
19
0
93
21
0
125
55
3
189
122
52
225
161
71
238
176
67
251
192
66
241
182
44
247
190
41
246
187
35
245
186
32
247
188
36
250
188
41
248
186
41
247
184
43
251
185
47
250
184
46
250
184
46
250
184
44
250
185
43
250
185
41
248
186
39
248
187
37
247
187
37
247
187
37
247
187
39
248
186
41
248
185
44
248
185
46
248
184
48
248
184
52
248
184
52
248
184
52
248
184
50
250
184
44
250
185
41
250
185
39
250
185
39
250
185
41
250
185
43
250
184
44
250
185
43
248
186
41
248
186
39
248
186
39
248
186
39
247
186
43
247
186
43
248
186
41
248
186
41
248
186
41
248
186
41
248
186
41
248
186
41
248
186
41
248
186
41
248
186
41
248
186
41
248
186
41
248
186
41
248
186
43
248
186
43
248
186
43
248
186
41
248
186
41
247
186
35
249
191
29
250
193
28
238
182
25
244
187
46
252
190
77
228
164
77
194
126
65
117
46
0
95
22
0
88
15
0
99
23
0
102
26
3
106
27
12
107
27
16
103
25
15
106
28
16
94
17
0
91
16
0
94
21
0
116
46
0
180
113
32
236
173
70
246
186
64
239
181
45
249
193
46
244
187
35
243
186
34
187
123
52
133
66
11
99
32
0
90
21
0
84
13
0
83
15
0
87
16
0
85
14
0
85
14
0
87
18
0
105
38
0
125
58
3
185
121
47
232
168
78
242
182
70
238
179
53
244
184
51
252
191
49
245
185
39
247
186
36
248
187
36
248
187
36
248
186
39
248
186
41
248
185
46
248
184
48
250
184
46
251
184
44
251
184
44
250
184
44
250
185
43
248
186
43
248
186
43
248
185
44
247
186
44
247
186
46
247
186
46
247
186
46
247
186
46
247
186
46
247
186
46
247
185
48
248
184
50
248
184
50
250
184
46
250
185
43
250
185
39
250
185
39
251
185
39
251
185
39
250
185
39
250
185
39
250
185
39
250
185
39
248
186
39
248
186
41
248
186
43
248
186
43
248
186
41
248
186
41
248
186
41
248
186
41
248
186
41
248
186
41
248
186
41
248
186
41
248
186
41
248
186
41
248
186
41
248
186
41
248
186
41
248
186
41
248
186
41
248
186
41
250
188
41
247
186
33
249
190
28
248
191
24
242
184
22
247
190
41
243
182
57
239
176
71
235
169
85
181
114
46
131
62
5
110
40
0
94
25
0
86
16
0
88
17
0
91
19
0
85
13
0
92
21
0
98
25
0
105
34
0
136
66
6
183
116
37
233
170
67
244
182
59
248
189
51
240
183
34
247
190
38
243
184
32
248
188
38
236
173
78
201
138
58
173
108
42
138
73
17
110
44
0
103
39
0
104
37
0
100
36
0
115
48
3
136
70
18
170
106
44
209
147
70
228
168
72
245
185
73
246
187
59
246
187
49
242
181
41
248
187
45
241
178
37
248
186
43
251
189
42
247
186
36
246
184
37
249
187
42
248
187
47
246
182
46
250
184
44
251
184
43
251
184
43
251
184
43
250
185
43
248
185
44
248
185
44
247
186
46
247
185
48
247
185
48
247
185
48
245
186
46
247
186
44
245
187
43
247
187
41
247
186
44
247
185
50
248
184
52
248
184
50
250
184
46
250
185
43
250
185
41
250
186
37
250
186
37
250
186
36
250
186
36
250
186
37
250
186
37
248
186
41
248
186
43
248
185
44
248
186
43
248
186
43
248
186
41
248
186
41
248
186
41
248
186
41
248
186
41
248
186
41
248
186
41
248
186
41
248
186
41
248
186
41
248
186
41
248
186
41
248
186
41
248
186
41
248
186
41
248
186
41
247
185
38
243
183
27
248
188
29
255
198
39
240
180
30
247
185
52
247
185
66
242
177
73
250
185
93
201
136
52
174
110
36
133
68
2
111
46
0
106
40
0
103
37
0
108
42
0
111
46
0
134
68
10
174
109
43
200
135
55
238
174
76
251
189
68
246
184
47
248
188
38
248
189
35
250
189
38
248
188
38
249
188
45
245
183
62
244
182
71
233
171
70
213
153
57
194
133
42
184
124
36
184
122
35
187
127
39
199
137
50
210
151
61
226
167
77
236
178
78
243
186
70
243
186
55
241
184
43
243
185
39
247
186
43
249
186
47
250
184
48
250
184
46
250
185
43
250
185
41
248
186
39
248
186
41
247
186
46
248
185
46
249
184
42
254
187
44
250
183
40
253
186
43
248
183
39
248
186
41
253
191
48
241
180
38
246
184
47
242
183
45
248
189
51
247
190
49
241
183
39
243
187
40
250
193
42
245
187
41
243
183
51
247
183
57
248
185
56
247
183
51
254
190
54
249
187
44
249
187
40
244
180
30
251
188
35
250
187
34
248
184
34
249
185
36
248
186
41
249
187
44
249
186
45
248
186
43
248
186
43
248
186
41
248
186
41
248
186
41
248
186
41
248
186
41
248
186
41
248
186
41
248
186
41
248
186
41
248
186
41
248
186
41
248
186
41
248
186
41
248
186
41
248
186
43
248
184
48
248
184
48
248
185
44
248
186
41
248
186
41
247
186
43
247
185
48
245
185
53
241
180
55
246
186
64
244
185
67
227
169
59
208
149
47
194
135
43
185
127
43
181
122
42
185
128
41
194
137
48
211
151
65
228
167
76
241
179
78
246
185
68
246
187
51
244
184
34
248
188
32
248
188
32
250
186
37
248
186
43
248
184
48
247
186
44
245
185
52
248
189
61
245
187
62
243
185
62
240
182
59
237
178
58
237
178
58
242
183
63
244
188
69
237
180
67
242
186
67
245
188
55
243
186
43
242
185
34
246
186
36
249
187
44
248
185
46
250
183
50
250
183
50
250
184
46
250
185
43
248
186
41
248
186
41
247
186
44
248
185
44
252
187
43
249
183
37
248
182
34
255
192
43
251
190
40
240
180
32
244
183
40
247
188
48
244
184
51
245
186
56
244
185
57
243
186
57
246
189
60
247
190
59
243
186
53
239
182
51
246
186
66
244
183
68
242
179
63
239
177
56
246
182
56
246
184
49
247
186
43
250
189
38
249
189
33
250
187
32
249
185
35
249
185
36
248
186
41
248
186
43
248
185
44
248
185
44
248
186
43
248
186
41
248
186
41
248
186
41
248
186
41
248
186
41
248
186
41
248
186
41
248
186
41
248
186
41
248
186
41
248
186
41
248
186
41
248
186
41
248
186
41
248
185
44
248
184
50
248
184
52
248
184
50
248
184
48
248
185
46
248
185
46
247
186
46
247
186
46
249
190
50
248
190
47
244
187
46
242
186
49
242
187
60
243
188
69
237
181
72
229
172
65
239
183
70
239
183
70
239
183
72
241
184
71
244
184
64
246
186
54
247
187
41
248
188
32
250
187
30
250
187
32
250
185
41
250
184
46
248
184
52
248
187
37
247
187
39
242
181
38
246
188
44
248
190
46
245
189
44
243
187
40
243
187
42
243
186
43
241
184
45
246
187
57
247
189
56
245
189
44
243
186
35
244
188
33
248
189
37
249
187
44
246
182
46
250
183
52
250
183
52
250
184
46
250
185
43
248
186
41
248
186
41
248
186
43
248
186
43
253
189
40
252
186
37
247
184
31
245
184
31
250
189
38
245
185
37
242
184
41
243
185
52
241
183
60
244
184
70
233
171
68
220
161
61
220
160
64
213
152
59
208
147
54
215
155
59
219
156
59
227
165
66
237
173
75
242
179
74
246
182
72
246
184
61
241
182
46
248
188
42
249
190
36
249
189
33
248
187
36
247
185
38
248
186
41
248
186
43
248
185
44
247
184
43
248
186
43
248
186
43
248
186
43
248
186
43
248
186
41
248
186
41
248
186
41
248
186
41
248
186
41
248
186
41
248
186
41
248
186
41
248
186
41
248
186
41
248
186
41
248
186
43
248
184
48
248
184
50
248
184
50
248
184
50
248
184
48
248
184
48
247
186
44
247
187
41
247
187
37
246
190
35
244
189
34
240
186
34
241
186
41
242
188
53
241
186
59
237
182
56
242
188
54
242
188
53
242
188
56
243
186
55
244
186
52
245
187
44
247
188
36
249
189
33
250
187
30
250
186
36
250
184
44
250
183
50
250
183
53
248
187
36
248
187
37
250
190
40
248
188
38
246
187
33
246
187
33
247
188
32
248
189
35
246
186
36
243
183
37
244
185
45
245
187
44
246
186
36
246
187
33
248
189
33
250
191
39
248
186
43
244
181
42
250
183
52
250
183
50
250
184
46
250
185
43
248
186
39
248
186
39
248
186
41
250
185
39
250
186
36
253
190
37
248
187
34
241
182
28
248
188
38
246
188
45
247
189
56
242
183
63
222
163
59
205
146
56
178
116
39
158
95
28
145
81
20
127
65
6
123
61
4
133
71
10
137
74
3
153
91
14
175
112
35
199
137
54
224
161
68
244
181
75
244
185
59
245
186
48
246
189
40
247
188
36
248
187
37
248
186
39
248
186
43
248
185
44
248
185
44
248
185
44
248
186
43
248
186
43
248
186
43
248
186
43
248
186
41
248
186
41
248
186
41
248
186
41
248
186
41
248
186
41
248
186
41
248
186
41
248
186
41
248
186
41
248
186
41
248
186
41
248
186
43
248
185
44
248
185
46
248
185
46
248
184
48
247
186
46
247
186
43
247
187
39
245
186
32
250
191
35
250
194
35
246
192
34
241
186
34
242
185
42
245
187
51
247
189
53
239
184
40
241
186
41
245
188
45
246
189
48
246
188
45
246
186
40
247
186
33
247
187
31
250
187
34
250
186
37
250
184
44
250
183
50
250
183
52
248
186
41
248
186
43
248
186
43
243
181
36
243
182
32
248
187
36
250
189
39
247
185
38
245
182
41
245
182
43
245
182
41
246
184
39
247
186
35
247
186
33
249
188
35
250
189
39
249
187
42
247
184
43
248
185
46
248
185
46
248
186
43
248
186
39
250
185
39
250
185
39
250
185
41
250
185
39
247
183
33
246
185
32
250
189
36
251
191
41
251
193
50
239
181
48
244
185
69
226
167
67
169
108
28
130
68
7
104
40
0
96
31
0
88
22
0
80
14
0
78
11
0
79
14
0
88
25
0
93
32
0
101
38
0
123
61
2
165
103
30
212
151
62
244
184
72
244
185
57
244
186
43
245
188
39
247
187
39
247
187
41
247
186
44
247
186
44
248
185
44
248
186
43
248
186
43
248
186
43
248
186
43
248
186
43
248
186
43
248
186
43
248
186
41
248
186
41
248
186
41
248
186
41
248
186
41
248
186
41
248
186
39
248
186
39
248
186
39
248
186
39
247
187
37
247
187
37
247
187
39
247
187
41
247
186
43
247
186
43
247
187
41
245
188
39
246
186
36
244
185
33
243
184
32
244
184
34
247
187
41
249
188
46
247
185
48
244
182
45
248
190
46
248
190
44
248
190
46
246
188
44
246
186
40
246
186
38
248
187
36
250
189
38
250
186
37
250
185
39
250
184
44
250
184
48
250
184
48
248
185
44
248
185
46
249
185
49
246
183
42
247
185
38
250
189
39
250
185
39
245
180
36
248
182
46
255
189
53
251
184
44
251
185
39
250
184
36
249
185
35
250
186
37
249
188
38
249
187
42
250
188
43
248
186
41
248
186
41
248
186
39
248
187
37
250
186
37
250
186
37
250
185
39
250
185
39
248
187
36
248
189
37
246
186
36
247
189
46
249
191
58
242
183
65
236
177
77
165
104
23
110
48
0
84
21
0
79
13
0
88
22
8
88
21
13
87
20
14
92
25
19
90
26
14
93
28
6
92
28
0
84
21
0
86
22
0
107
44
0
155
93
20
231
172
72
245
186
66
242
184
48
244
186
42
247
186
43
248
187
44
247
186
46
247
186
46
248
186
43
249
187
44
248
186
43
248
186
43
248
186
43
248
186
43
248
186
43
248
186
43
248
186
41
248
186
41
248
186
41
248
186
41
248
186
41
248
186
41
248
186
39
248
186
39
248
186
39
248
187
37
247
188
36
247
188
36
247
187
37
247
187
39
247
187
41
247
187
41
245
187
41
245
188
39
254
194
48
250
190
44
247
187
41
249
187
44
251
188
47
253
187
47
249
183
43
244
178
38
244
182
39
244
183
40
245
182
41
245
184
41
245
185
39
247
187
39
250
189
39
251
190
40
250
185
39
250
185
41
250
185
43
250
184
44
250
184
44
247
186
46
247
185
50
249
187
52
247
186
46
247
185
40
247
186
36
246
182
33
246
179
36
249
181
46
255
187
52
253
184
45
252
184
41
251
183
40
251
184
41
251
186
40
249
187
40
249
187
40
247
187
37
247
187
37
247
188
36
248
187
34
248
187
34
250
186
36
250
186
37
251
185
39
251
185
39
249
187
40
251
191
45
245
184
42
242
182
49
243
183
63
247
185
82
237
175
90
111
47
0
85
21
0
85
20
0
92
26
10
96
32
22
94
30
20
92
28
18
96
32
20
99
37
24
92
28
18
94
30
21
89
25
15
83
18
0
80
16
0
109
47
0
221
159
72
248
188
76
243
184
54
244
187
46
246
187
47
246
187
47
247
186
46
247
186
46
248
186
43
248
186
41
248
186
43
248
186
43
248
186
43
248
186
43
248
186
43
248
186
43
248
186
41
248
186
41
248
186
41
248
186
41
248
186
41
248
186
41
248
186
39
248
186
39
248
186
39
248
186
39
247
187
39
247
187
39
245
188
39
245
187
41
245
187
41
245
187
43
245
187
43
245
187
43
243
182
40
245
184
44
247
183
47
248
185
46
250
183
43
249
182
39
250
182
35
249
183
37
250
184
46
248
184
50
251
185
49
249
186
47
250
187
46
249
187
44
247
185
40
245
183
36
248
186
41
248
186
41
250
185
41
250
185
41
250
185
39
247
185
48
247
185
50
244
182
47
245
184
44
247
185
40
247
185
38
252
187
41
255
188
45
253
185
48
248
180
43
251
182
43
250
181
41
249
182
41
252
185
44
254
189
45
251
189
44
247
185
38
243
183
33
247
188
36
247
188
36
248
187
36
248
187
36
250
186
37
250
186
37
251
185
39
250
185
41
244
182
37
247
186
43
244
185
45
251
191
59
241
180
63
239
177
76
241
179
96
108
44
0
77
13
0
92
27
0
96
30
14
92
28
18
98
34
25
99
35
25
96
32
20
98
36
25
99
36
31
97
33
31
93
28
22
89
24
6
81
17
0
95
33
0
218
156
69
242
182
72
243
184
56
245
186
48
247
188
48
248
187
45
247
186
46
247
184
45
247
184
43
248
186
43
248
186
43
248
186
43
248
186
43
248
186
43
248
186
43
248
186
43
248
186
41
248
186
41
248
186
41
248
186
41
248
186
41
248
186
41
248
186
39
248
186
39
248
186
39
248
186
39
248
186
41
247
187
41
247
187
41
245
187
41
245
187
43
245
187
43
245
187
43
245
187
43
247
186
44
247
186
46
249
185
49
252
186
50
253
186
46
252
184
41
252
185
36
252
184
37
252
186
48
248
184
50
248
181
48
246
182
46
247
184
45
248
185
44
249
187
44
248
186
41
248
186
41
248
186
39
250
185
39
250
185
39
250
185
39
248
187
47
248
187
47
247
186
46
247
186
44
248
186
43
248
186
41
248
186
41
250
185
41
250
185
43
250
185
43
250
185
41
250
185
41
250
185
41
250
185
41
248
186
41
248
186
41
248
186
41
248
186
39
248
186
39
248
186
39
248
186
39
248
186
41
248
186
41
248
186
41
250
185
41
248
186
41
245
185
39
248
188
42
238
180
37
250
191
55
237
178
52
240
180
68
239
178
85
150
88
13
94
29
0
83
18
0
86
20
0
88
22
8
90
23
15
93
28
22
93
28
22
94
31
24
92
29
24
86
23
14
89
26
8
81
18
0
84
23
0
138
79
3
227
167
69
246
187
71
247
187
57
248
187
47
248
187
45
248
186
43
248
185
44
250
184
44
250
184
46
250
184
44
248
186
43
248
186
41
248
186
41
248
186
41
248
186
41
248
186
41
248
186
41
248
186
41
248
186
41
248
186
41
248
186
41
248
186
41
248
186
41
248
186
41
248
186
41
248
186
41
248
186
41
248
186
41
248
186
41
247
187
41
247
187
41
247
187
41
247
187
41
247
187
41
247
186
43
247
186
43
248
186
43
248
186
43
250
185
43
251
184
41
251
185
39
251
185
39
248
186
43
247
186
44
248
185
46
247
186
46
247
186
46
247
186
44
247
186
43
247
187
41
246
186
38
249
189
39
250
189
39
246
185
35
245
183
38
247
186
44
247
186
44
247
186
44
247
186
44
248
186
43
248
186
43
248
186
41
248
186
41
250
185
41
250
185
41
248
186
39
248
186
39
248
186
41
248
186
41
248
186
41
248
186
41
248
186
41
248
186
41
248
186
41
248
186
41
248
186
43
248
186
43
248
186
43
248
186
43
248
186
43
248
186
41
248
188
40
245
185
37
237
180
31
252
194
50
242
182
49
239
179
55
251
190
83
205
144
55
145
80
12
110
44
0
88
23
0
84
19
0
85
18
0
83
18
0
78
13
0
79
16
0
76
15
0
80
20
0
89
29
0
98
38
0
134
74
2
190
131
41
242
181
74
243
183
59
246
187
51
248
187
44
248
186
39
248
186
39
250
185
41
250
185
43
251
184
44
250
184
44
248
186
43
248
186
41
248
186
41
248
186
41
248
186
41
248
186
41
248
186
41
248
186
41
248
186
41
248
186
41
248
186
41
248
186
41
248
186
41
248
186
41
248
186
41
248
186
41
250
185
41
250
185
41
248
186
41
248
186
41
247
187
41
247
187
41
247
187
41
247
187
41
247
187
41
247
187
41
248
186
41
248
186
41
250
185
41
250
185
41
251
184
41
250
185
41
248
186
41
247
187
41
247
186
43
247
186
44
247
186
46
247
186
44
247
186
43
247
187
41
246
186
38
246
185
35
249
188
38
255
190
44
253
188
46
247
186
43
247
186
43
247
186
43
247
186
43
248
186
43
248
186
43
248
186
41
248
186
41
250
185
41
250
185
41
248
186
39
248
186
39
248
186
41
248
186
41
248
186
41
248
186
41
248
186
41
248
186
41
248
186
41
248
186
41
248
186
43
248
186
43
248
186
43
248
186
43
248
186
43
248
186
41
250
191
39
245
186
32
242
183
29
249
192
41
244
186
42
239
181
47
251
191
69
241
180
74
213
151
64
176
114
41
149
85
24
129
66
13
115
51
3
105
43
0
102
40
0
107
46
0
112
51
6
120
60
10
141
82
22
167
109
35
208
149
59
231
173
66
241
183
60
248
190
54
244
186
42
246
187
35
248
187
34
248
187
34
250
186
36
250
185
39
250
185
41
250
185
43
248
186
41
248
186
41
248
186
41
248
186
41
248
186
41
248
186
41
248
186
41
248
186
41
248
186
41
248
186
41
248
186
41
248
186
41
248
186
41
248
186
41
248
186
41
248
186
41
248
186
41
248
186
41
248
186
41
248
186
41
247
187
41
247
187
41
247
187
41
247
187
41
247
187
41
247
187
41
248
186
41
248
186
41
250
185
41
250
185
41
251
184
41
250
185
41
248
186
41
248
186
41
247
186
43
247
186
43
247
186
44
247
186
44
247
186
43
247
187
41
248
186
39
247
185
38
251
186
42
255
188
47
253
185
50
246
185
42
246
185
42
247
186
43
247
186
43
248
186
43
248
186
43
248
186
41
248
186
41
250
185
41
250
185
41
248
186
39
248
186
39
248
186
41
248
186
41
248
186
41
248
186
41
248
186
41
248
186
41
248
186
41
248
186
41
248
186
43
248
186
43
248
186
43
248
186
43
248
186
43
248
186
41
248
189
37
248
189
33
246
187
31
245
186
32
248
188
38
246
188
44
242
182
50
240
180
60
245
184
78
231
170
77
223
161
76
205
144
64
191
129
52
191
129
54
189
130
52
193
134
56
189
131
57
194
137
60
214
156
72
229
170
76
244
186
78
245
187
64
236
178
44
249
191
47
245
186
34
246
187
31
247
187
29
248
188
32
250
187
34
250
186
37
250
185
39
250
185
41
248
186
41
248
186
41
248
186
41
248
186
41
248
186
41
248
186
41
248
186
41
248
186
41
248
186
41
248
186
41
248
186
41
248
186
41
248
186
41
248
186
41
248
186
41
248
186
41
248
186
41
248
186
41
248
186
41
248
186
41
247
187
41
247
187
41
247
187
41
247
187
41
247
187
41
247
187
41
248
186
41
248
186
41
250
185
41
250
185
41
251
184
41
250
185
41
250
185
41
248
186
41
248
186
43
247
186
43
247
186
44
247
186
44
247
186
43
247
186
43
247
185
40
251
186
44
251
184
44
249
179
45
252
179
51
246
186
40
246
186
40
247
186
43
247
186
43
248
186
43
248
186
43
248
186
41
248
186
41
250
185
41
250
185
41
248
186
39
248
186
39
248
186
41
248
186
41
248
186
41
248
186
41
248
186
41
248
186
41
248
186
41
248
186
41
248
186
43
248
186
43
248
186
43
248
186
43
248
186
43
248
186
41
246
185
34
249
189
33
249
189
33
242
183
27
250
191
37
254
194
44
241
180
38
240
180
47
248
186
63
242
181
66
244
181
75
242
181
75
243
181
78
247
189
82
244
186
78
239
181
74
241
184
81
241
184
81
246
188
80
237
180
64
236
178
52
248
190
56
242
186
41
241
184
33
245
186
30
246
188
29
247
187
29
248
188
32
248
187
36
248
187
37
248
186
39
248
186
41
248
186
41
248
186
41
248
186
41
248
186
41
248
186
41
248
186
41
248
186
41
248
186
41
248
186
41
248
186
41
248
186
41
248
186
41
248
186
41
248
186
41
248
186
41
248
186
41
248
186
41
248
186
41
248
186
41
248
186
41
247
187
41
247
187
41
247
187
41
247
187
41
248
186
41
248
186
41
248
186
41
248
186
41
250
185
41
250
185
41
250
185
41
250
185
41
250
185
39
248
186
39
248
186
41
247
187
41
247
186
43
245
187
43
247
186
43
247
186
43
244
181
40
250
182
45
252
182
50
254
179
54
255
175
58
247
187
41
247
187
41
247
186
43
247
186
43
248
186
43
248
186
43
248
186
41
248
186
41
250
185
41
250
185
41
248
186
39
248
186
39
248
186
41
248
186
41
248
186
41
248
186
41
248
186
41
248
186
41
248
186
41
248
186
41
248
186
43
248
186
43
248
186
43
248
186
43
248
186
43
248
186
41
248
186
39
247
186
35
249
188
35
244
183
30
248
187
34
248
189
37
241
181
35
250
189
47
253
191
58
239
179
49
242
181
56
247
185
62
247
187
63
246
187
61
240
181
53
239
180
52
247
189
66
244
186
63
247
187
63
245
186
56
237
178
40
247
189
45
248
191
40
247
188
34
246
187
31
246
187
31
248
188
32
248
187
34
248
187
37
248
186
39
248
186
43
248
186
43
248
186
41
248
186
41
248
186
41
248
186
41
248
186
41
248
186
41
248
186
41
248
186
41
248
186
41
248
186
41
248
186
41
248
186
41
248
186
41
248
186
41
248
186
41
248
186
41
248
186
41
248
186
41
248
186
41
248
186
41
247
187
41
247
187
41
247
187
41
247
187
41
248
186
41
248
186
41
248
186
41
248
186
41
250
185
41
250
185
41
250
185
41
250
185
41
250
185
39
250
185
39
248
186
41
248
186
41
247
186
43
245
187
43
247
186
43
248
185
44
250
184
48
250
180
50
254
178
56
255
176
62
251
163
57
247
187
39
247
187
39
247
187
41
247
187
41
248
186
41
248
186
41
248
186
41
248
186
41
250
185
41
250
185
41
248
186
39
248
186
39
248
186
41
248
186
41
248
186
41
248
186
41
248
186
41
248
186
41
248
186
41
248
186
41
248
186
43
248
186
43
248
186
43
248
186
43
248
186
43
248
186
43
252
187
45
248
183
41
251
186
42
245
183
36
244
183
33
246
184
37
245
183
38
251
189
46
252
189
50
244
182
47
250
188
53
251
189
54
247
185
50
247
185
48
245
186
46
249
190
50
243
184
48
243
183
50
244
182
47
255
196
56
250
189
46
246
186
38
247
187
37
254
193
42
249
188
37
249
188
37
247
187
37
247
187
39
247
187
41
247
186
43
247
186
46
247
186
44
248
186
43
248
186
41
248
186
41
248
186
41
248
186
41
248
186
41
248
186
41
248
186
41
248
186
41
248
186
41
248
186
41
248
186
41
248
186
41
248
186
41
248
186
41
248
186
41
248
186
41
248
186
41
248
186
41
248
186
41
248
186
41
248
186
41
248
186
41
248
186
41
248
186
41
248
186
41
248
186
41
248
186
41
250
185
41
250
185
41
250
185
41
250
185
41
250
185
39
250
186
37
248
186
39
248
186
39
247
187
41
247
186
43
248
185
44
250
184
48
255
186
56
255
179
57
250
169
54
241
152
48
223
124
30
248
188
40
248
188
40
247
187
41
247
187
41
248
186
41
248
186
41
248
186
41
248
186
41
250
185
41
250
185
41
248
186
39
248
186
39
248
186
41
248
186
41
248
186
41
248
186
41
248
186
41
248
186
41
248
186
41
248
186
41
248
186
43
248
186
43
248
186
43
248
186
43
248
186
43
248
185
44
249
183
45
249
183
45
252
186
46
248
183
41
244
182
37
252
190
45
252
190
45
245
183
40
247
184
43
247
184
43
253
190
51
247
184
43
244
182
39
252
190
45
252
190
43
248
186
39
248
186
43
255
192
51
239
177
34
247
185
40
249
187
42
250
188
41
248
187
37
248
187
37
250
189
39
249
187
40
248
188
42
247
186
43
247
186
44
247
186
44
247
186
46
247
186
46
248
186
43
248
186
41
248
186
41
248
186
41
248
186
41
248
186
41
248
186
41
248
186
41
248
186
41
248
186
41
248
186
41
248
186
41
248
186
41
248
186
41
248
186
41
248
186
41
248
186
41
248
186
41
248
186
41
248
186
41
248
186
41
248
186
41
248
186
41
248
186
41
248
186
41
248
186
41
248
186
41
248
186
41
250
185
41
250
185
41
250
185
41
250
185
39
250
186
37
250
186
37
248
186
39
248
186
39
247
187
41
248
186
43
248
185
46
251
183
50
255
181
56
255
176
61
243
154
50
215
118
23
191
85
1
248
188
40
246
186
38
247
187
39
247
187
39
248
186
41
248
186
41
248
186
41
248
186
41
250
185
41
250
185
41
248
186
39
248
186
39
248
186
41
248
186
41
248
186
41
248
186
41
248
186
41
248
186
41
248
186
41
248
186
41
248
186
43
248
186
43
248
186
43
248
186
43
248
186
43
248
185
44
250
184
48
250
183
50
250
184
48
250
184
46
250
184
44
250
185
43
250
185
43
250
185
43
250
184
44
250
185
43
250
184
44
250
185
43
250
185
43
250
185
41
250
185
39
250
186
37
248
183
37
249
184
38
250
185
39
251
186
40
251
186
40
250
185
39
247
185
38
246
184
37
248
186
39
248
186
41
247
187
41
247
186
43
246
185
43
246
185
43
246
185
45
246
185
43
248
186
43
248
186
41
248
186
41
248
186
41
248
186
41
248
186
41
248
186
41
248
186
41
248
186
41
248
186
41
248
186
41
248
186
41
248
186
41
248
186
41
248
186
41
248
186
41
247
187
41
247
187
41
247
187
41
247
187
41
248
186
41
248
186
41
248
186
41
248
186
41
248
186
41
248
186
41
250
185
41
250
185
41
250
185
41
250
185
41
250
185
41
250
185
39
249
185
36
250
186
36
243
182
32
254
192
45
250
188
43
242
179
38
255
189
54
250
179
51
251
172
54
253
166
60
204
107
12
191
87
2
192
78
5
