P2
# Created by GIMP version 2.10.34 PNM plug-in
3 3
255
0
32
64
95
126
159
191
223
255