P2
# Created by GIMP version 2.10.34 PNM plug-in
4 4
255
0
17
34
51
68
85
102
119
136
153
170
187
204
221
238
255
